<svg width="399" height="91" viewBox="0 0 399 91" fill="none" xmlns="http://www.w3.org/2000/svg">
<path d="M2.5 15H1.09375V3.72656H7.9375V4.99219H2.5V8.86719H7.49219V10.1172H2.5V15ZM9.40625 15V3.72656H10.7656V15H9.40625ZM15.2812 13.9844C16.5625 13.9844 17.5469 13.0859 17.5469 11.9141V11.25L15.375 11.3828C14.2812 11.4531 13.6562 11.9375 13.6562 12.7031C13.6562 13.4766 14.3047 13.9844 15.2812 13.9844ZM14.9766 15.1406C13.3594 15.1406 12.2734 14.1641 12.2734 12.7031C12.2734 11.3125 13.3438 10.4375 15.2188 10.3281L17.5469 10.1953V9.51562C17.5469 8.52344 16.8906 7.92969 15.7656 7.92969C14.7188 7.92969 14.0625 8.42188 13.8906 9.21875H12.5781C12.6719 7.8125 13.875 6.73438 15.7969 6.73438C17.7031 6.73438 18.9062 7.76562 18.9062 9.38281V15H17.6172V13.6016H17.5859C17.1016 14.5312 16.0703 15.1406 14.9766 15.1406ZM20.4922 9.11719C20.4922 7.72656 21.7344 6.73438 23.5234 6.73438C25.2031 6.73438 26.4375 7.73438 26.5 9.10938H25.2031C25.1094 8.32812 24.4766 7.84375 23.4766 7.84375C22.4844 7.84375 21.8281 8.33594 21.8281 9.04688C21.8281 9.60938 22.2578 9.98438 23.1797 10.2188L24.4375 10.5234C26.0781 10.9375 26.6719 11.5312 26.6719 12.7266C26.6719 14.1406 25.3359 15.1406 23.4375 15.1406C21.6562 15.1406 20.4141 14.1719 20.2734 12.7344H21.6328C21.7812 13.5781 22.4219 14.0312 23.5234 14.0312C24.625 14.0312 25.3047 13.5625 25.3047 12.8281C25.3047 12.25 24.9688 11.9375 24.0547 11.6953L22.625 11.3281C21.1953 10.9609 20.4922 10.2266 20.4922 9.11719ZM28.1562 15V3.72656H29.5156V8.17188H29.5469C30 7.26562 30.8906 6.73438 32.125 6.73438C33.9062 6.73438 34.9844 7.9375 34.9844 9.75V15H33.625V10C33.625 8.71094 32.9766 7.9375 31.7031 7.9375C30.3516 7.9375 29.5156 8.85938 29.5156 10.2656V15H28.1562ZM43.4609 9.53906H42.1328C41.9375 8.65625 41.25 7.92969 40.0547 7.92969C38.6484 7.92969 37.6953 9.09375 37.6953 10.9375C37.6953 12.8281 38.6641 13.9453 40.0703 13.9453C41.1797 13.9453 41.9062 13.3594 42.1406 12.3828H43.4766C43.2656 14 41.9062 15.1406 40.0625 15.1406C37.8125 15.1406 36.3125 13.5547 36.3125 10.9375C36.3125 8.375 37.8047 6.73438 40.0469 6.73438C42.0781 6.73438 43.2891 8.07812 43.4609 9.53906ZM47.4062 13.9844C48.6875 13.9844 49.6719 13.0859 49.6719 11.9141V11.25L47.5 11.3828C46.4062 11.4531 45.7812 11.9375 45.7812 12.7031C45.7812 13.4766 46.4297 13.9844 47.4062 13.9844ZM47.1016 15.1406C45.4844 15.1406 44.3984 14.1641 44.3984 12.7031C44.3984 11.3125 45.4688 10.4375 47.3438 10.3281L49.6719 10.1953V9.51562C49.6719 8.52344 49.0156 7.92969 47.8906 7.92969C46.8438 7.92969 46.1875 8.42188 46.0156 9.21875H44.7031C44.7969 7.8125 46 6.73438 47.9219 6.73438C49.8281 6.73438 51.0312 7.76562 51.0312 9.38281V15H49.7422V13.6016H49.7109C49.2266 14.5312 48.1953 15.1406 47.1016 15.1406ZM52.7578 15V6.875H54.0391V8.20312H54.0703C54.3359 7.30469 55.0859 6.73438 56.0391 6.73438C56.2734 6.73438 56.4766 6.77344 56.5859 6.78906V8.10938C56.4766 8.07031 56.1875 8.03125 55.8594 8.03125C54.8047 8.03125 54.1172 8.78906 54.1172 9.9375V15H52.7578ZM60.3828 15.1406C58.3125 15.1406 56.9062 13.4844 56.9062 10.9375C56.9062 8.39062 58.3047 6.73438 60.3516 6.73438C61.5156 6.73438 62.4531 7.30469 62.9375 8.19531H62.9688V3.72656H64.3281V15H63.0312V13.625H63.0078C62.4844 14.5625 61.5547 15.1406 60.3828 15.1406ZM60.6406 7.92969C59.2031 7.92969 58.2969 9.10156 58.2969 10.9375C58.2969 12.7812 59.2031 13.9453 60.6406 13.9453C62.0391 13.9453 62.9766 12.7578 62.9766 10.9375C62.9766 9.125 62.0391 7.92969 60.6406 7.92969ZM66.0234 9.11719C66.0234 7.72656 67.2656 6.73438 69.0547 6.73438C70.7344 6.73438 71.9688 7.73438 72.0312 9.10938H70.7344C70.6406 8.32812 70.0078 7.84375 69.0078 7.84375C68.0156 7.84375 67.3594 8.33594 67.3594 9.04688C67.3594 9.60938 67.7891 9.98438 68.7109 10.2188L69.9688 10.5234C71.6094 10.9375 72.2031 11.5312 72.2031 12.7266C72.2031 14.1406 70.8672 15.1406 68.9688 15.1406C67.1875 15.1406 65.9453 14.1719 65.8047 12.7344H67.1641C67.3125 13.5781 67.9531 14.0312 69.0547 14.0312C70.1562 14.0312 70.8359 13.5625 70.8359 12.8281C70.8359 12.25 70.5 11.9375 69.5859 11.6953L68.1562 11.3281C66.7266 10.9609 66.0234 10.2266 66.0234 9.11719Z" fill="#212121" fill-opacity="0.83"/>
<path d="M208.282 11.2954C208.282 8.34229 210.673 6.13916 213.86 6.13916C216.884 6.13916 219.263 8.18994 219.263 10.7798C219.263 12.6665 218.407 14.0728 215.583 16.9907L211.306 21.4087V21.4556H219.544V23.3306H208.388V21.8774L214.341 15.6079C216.614 13.2173 217.153 12.3149 217.153 10.9087C217.153 9.27979 215.665 7.979 213.802 7.979C211.821 7.979 210.321 9.40869 210.321 11.2954V11.3071H208.282V11.2954ZM227.899 23.6118C223.95 23.6118 221.665 20.2134 221.665 14.8696C221.665 9.57275 223.974 6.13916 227.899 6.13916C231.825 6.13916 234.11 9.54932 234.11 14.8579C234.11 20.2017 231.837 23.6118 227.899 23.6118ZM227.899 21.772C230.536 21.772 231.989 19.0884 231.989 14.8696C231.989 10.7095 230.513 7.99072 227.899 7.99072C225.286 7.99072 223.786 10.7329 223.786 14.8579C223.786 19.0767 225.251 21.772 227.899 21.772ZM242.454 23.6118C238.505 23.6118 236.22 20.2134 236.22 14.8696C236.22 9.57275 238.528 6.13916 242.454 6.13916C246.38 6.13916 248.665 9.54932 248.665 14.8579C248.665 20.2017 246.392 23.6118 242.454 23.6118ZM242.454 21.772C245.091 21.772 246.544 19.0884 246.544 14.8696C246.544 10.7095 245.067 7.99072 242.454 7.99072C239.841 7.99072 238.341 10.7329 238.341 14.8579C238.341 19.0767 239.806 21.772 242.454 21.772ZM257.009 23.6118C253.06 23.6118 250.774 20.2134 250.774 14.8696C250.774 9.57275 253.083 6.13916 257.009 6.13916C260.935 6.13916 263.22 9.54932 263.22 14.8579C263.22 20.2017 260.946 23.6118 257.009 23.6118ZM257.009 21.772C259.646 21.772 261.099 19.0884 261.099 14.8696C261.099 10.7095 259.622 7.99072 257.009 7.99072C254.396 7.99072 252.896 10.7329 252.896 14.8579C252.896 19.0767 254.36 21.772 257.009 21.772ZM272.478 17.6118V22.979H270.579V17.6118H265.575V15.7134H270.579V10.4751H272.478V15.7134H277.481V17.6118H272.478Z" fill="#212121" fill-opacity="0.83"/>
<rect y="31.8901" width="284.959" height="3.0862" fill="#00224F"/>
<line y1="-1.5431" x2="19.0756" y2="-1.5431" transform="matrix(-0.390815 0.920469 -0.777638 -0.628713 287.017 23.6606)" stroke="black" stroke-width="3.0862"/>
<path d="M5.85156 62.5762C2.65625 62.5762 0.65625 60.334 0.65625 56.7559C0.65625 53.1777 2.65625 50.9277 5.85156 50.9277C9.04688 50.9277 11.0469 53.1777 11.0469 56.7559C11.0469 58.9355 10.3047 60.623 9 61.6074L10.4922 63.6621H8.91406L7.86719 62.2246C7.26562 62.459 6.59375 62.5762 5.85156 62.5762ZM5.85156 61.2793C6.28125 61.2793 6.67969 61.2168 7.04688 61.0996L5.64062 59.1621H7.21875L8.17969 60.4746C9.08594 59.709 9.60156 58.4121 9.60156 56.7559C9.60156 53.9746 8.15625 52.2246 5.85156 52.2246C3.54688 52.2246 2.10156 53.9746 2.10156 56.7559C2.10156 59.5293 3.54688 61.2793 5.85156 61.2793ZM19.2578 54.2637V62.3887H17.9688V61.0684H17.9375C17.4531 62.0059 16.6094 62.5293 15.3594 62.5293C13.5859 62.5293 12.5469 61.3809 12.5469 59.5371V54.2637H13.9062V59.2949C13.9062 60.6152 14.5234 61.3262 15.7812 61.3262C17.1016 61.3262 17.8984 60.4199 17.8984 59.0371V54.2637H19.2578ZM24.2812 55.3027C23.0078 55.3027 22.1172 56.2793 22.0312 57.6309H26.4453C26.4141 56.2715 25.5625 55.3027 24.2812 55.3027ZM26.4141 60.0605H27.75C27.5156 61.4824 26.1406 62.5293 24.3672 62.5293C22.0391 62.5293 20.625 60.9121 20.625 58.3574C20.625 55.834 22.0625 54.123 24.3047 54.123C26.5 54.123 27.8516 55.7168 27.8516 58.1777V58.6934H22.0234V58.7715C22.0234 60.3262 22.9375 61.3496 24.3984 61.3496C25.4297 61.3496 26.1875 60.8262 26.4141 60.0605ZM29.0859 56.5059C29.0859 55.1152 30.3281 54.123 32.1172 54.123C33.7969 54.123 35.0312 55.123 35.0938 56.498H33.7969C33.7031 55.7168 33.0703 55.2324 32.0703 55.2324C31.0781 55.2324 30.4219 55.7246 30.4219 56.4355C30.4219 56.998 30.8516 57.373 31.7734 57.6074L33.0312 57.9121C34.6719 58.3262 35.2656 58.9199 35.2656 60.1152C35.2656 61.5293 33.9297 62.5293 32.0312 62.5293C30.25 62.5293 29.0078 61.5605 28.8672 60.123H30.2266C30.375 60.9668 31.0156 61.4199 32.1172 61.4199C33.2188 61.4199 33.8984 60.9512 33.8984 60.2168C33.8984 59.6387 33.5625 59.3262 32.6484 59.084L31.2188 58.7168C29.7891 58.3496 29.0859 57.6152 29.0859 56.5059ZM37.1172 52.3027H38.4766V54.2637H40.0547V55.3809H38.4766V60.209C38.4766 60.9512 38.7891 61.2871 39.4844 61.2871C39.6406 61.2871 39.9531 61.2637 40.0469 61.248V62.3887C39.8828 62.4277 39.5078 62.4512 39.1875 62.4512C37.6953 62.4512 37.1172 61.8418 37.1172 60.2793V55.3809H35.9062V54.2637H37.1172V52.3027ZM41.5781 62.3887V54.2637H42.9375V62.3887H41.5781ZM42.2578 52.8965C41.7969 52.8965 41.4141 52.5137 41.4141 52.0527C41.4141 51.584 41.7969 51.209 42.2578 51.209C42.7266 51.209 43.1094 51.584 43.1094 52.0527C43.1094 52.5137 42.7266 52.8965 42.2578 52.8965ZM48.1406 62.5293C45.8906 62.5293 44.375 60.9121 44.375 58.3262C44.375 55.7324 45.8906 54.123 48.1406 54.123C50.3828 54.123 51.8984 55.7324 51.8984 58.3262C51.8984 60.9121 50.3828 62.5293 48.1406 62.5293ZM48.1406 61.334C49.5781 61.334 50.5156 60.2402 50.5156 58.3262C50.5156 56.4121 49.5781 55.3184 48.1406 55.3184C46.7031 55.3184 45.7578 56.4121 45.7578 58.3262C45.7578 60.2402 46.7031 61.334 48.1406 61.334ZM53.2734 62.3887V54.2637H54.5547V55.5605H54.5859C55.0391 54.6855 55.9062 54.123 57.1641 54.123C58.9453 54.123 59.9766 55.2715 59.9766 57.1152V62.3887H58.6172V57.3574C58.6172 56.0449 58 55.3262 56.75 55.3262C55.4688 55.3262 54.6328 56.2324 54.6328 57.6074V62.3887H53.2734ZM73.1797 62.3887L72.1328 61.2559C71.1797 62.0996 69.8672 62.5762 68.5312 62.5762C66.3047 62.5762 64.75 61.2637 64.75 59.3887C64.75 58.0684 65.4688 57.0527 66.9609 56.2637C67.1875 56.1465 67.3281 56.0684 67.3906 56.0449C66.3828 54.9746 65.9922 54.248 65.9922 53.4277C65.9922 51.998 67.2109 50.9277 68.8359 50.9277C70.4922 50.9277 71.6875 51.9824 71.6875 53.4434C71.6875 54.5918 70.9922 55.4277 69.2734 56.334L72.0625 59.3418C72.4297 58.6543 72.6016 57.7324 72.6016 56.3418V56.0059H73.8984V56.3496C73.8984 58.0684 73.5859 59.3184 72.9688 60.2871L74.9453 62.3887H73.1797ZM67.7656 57.084C66.6016 57.7949 66.1406 58.4277 66.1406 59.2949C66.1406 60.5527 67.1562 61.4043 68.6562 61.4043C69.6641 61.4043 70.7109 60.998 71.3125 60.3574L68.1406 56.8809C68.0391 56.9277 67.8359 57.0371 67.7656 57.084ZM68.5234 55.5449C69.875 54.8574 70.375 54.2949 70.375 53.4902C70.375 52.6309 69.7578 52.0293 68.8438 52.0293C67.9531 52.0293 67.3203 52.6465 67.3203 53.5059C67.3203 54.123 67.6484 54.6699 68.5234 55.5449ZM86.5156 62.3887L85.3828 59.1621H80.8984L79.7656 62.3887H78.2891L82.4453 51.1152H83.8359L87.9922 62.3887H86.5156ZM83.1172 52.8262L81.3125 57.9668H84.9688L83.1641 52.8262H83.1172ZM89.0703 62.3887V54.2637H90.3516V55.5605H90.3828C90.8359 54.6855 91.7031 54.123 92.9609 54.123C94.7422 54.123 95.7734 55.2715 95.7734 57.1152V62.3887H94.4141V57.3574C94.4141 56.0449 93.7969 55.3262 92.5469 55.3262C91.2656 55.3262 90.4297 56.2324 90.4297 57.6074V62.3887H89.0703ZM97.3672 56.5059C97.3672 55.1152 98.6094 54.123 100.398 54.123C102.078 54.123 103.312 55.123 103.375 56.498H102.078C101.984 55.7168 101.352 55.2324 100.352 55.2324C99.3594 55.2324 98.7031 55.7246 98.7031 56.4355C98.7031 56.998 99.1328 57.373 100.055 57.6074L101.312 57.9121C102.953 58.3262 103.547 58.9199 103.547 60.1152C103.547 61.5293 102.211 62.5293 100.312 62.5293C98.5312 62.5293 97.2891 61.5605 97.1484 60.123H98.5078C98.6562 60.9668 99.2969 61.4199 100.398 61.4199C101.5 61.4199 102.18 60.9512 102.18 60.2168C102.18 59.6387 101.844 59.3262 100.93 59.084L99.5 58.7168C98.0703 58.3496 97.3672 57.6152 97.3672 56.5059ZM115.297 54.2637L113.031 62.3887H111.648L109.812 56.0996H109.781L107.953 62.3887H106.57L104.297 54.2637H105.648L107.273 60.873H107.305L109.141 54.2637H110.453L112.297 60.873H112.328L113.953 54.2637H115.297ZM119.672 55.3027C118.398 55.3027 117.508 56.2793 117.422 57.6309H121.836C121.805 56.2715 120.953 55.3027 119.672 55.3027ZM121.805 60.0605H123.141C122.906 61.4824 121.531 62.5293 119.758 62.5293C117.43 62.5293 116.016 60.9121 116.016 58.3574C116.016 55.834 117.453 54.123 119.695 54.123C121.891 54.123 123.242 55.7168 123.242 58.1777V58.6934H117.414V58.7715C117.414 60.3262 118.328 61.3496 119.789 61.3496C120.82 61.3496 121.578 60.8262 121.805 60.0605ZM124.617 62.3887V54.2637H125.898V55.5918H125.93C126.195 54.6934 126.945 54.123 127.898 54.123C128.133 54.123 128.336 54.1621 128.445 54.1777V55.498C128.336 55.459 128.047 55.4199 127.719 55.4199C126.664 55.4199 125.977 56.1777 125.977 57.3262V62.3887H124.617Z" fill="#212121" fill-opacity="0.83"/>
<path d="M288.041 58.1841C288.041 55.231 290.431 53.0278 293.619 53.0278C296.642 53.0278 299.021 55.0786 299.021 57.6685C299.021 59.5552 298.166 60.9614 295.342 63.8794L291.064 68.2974V68.3442H299.302V70.2192H288.146V68.7661L294.099 62.4966C296.373 60.106 296.912 59.2036 296.912 57.7974C296.912 56.1685 295.424 54.8677 293.56 54.8677C291.58 54.8677 290.08 56.2974 290.08 58.1841V58.1958H288.041V58.1841ZM307.658 70.5005C303.709 70.5005 301.424 67.1021 301.424 61.7583C301.424 56.4614 303.732 53.0278 307.658 53.0278C311.584 53.0278 313.869 56.438 313.869 61.7466C313.869 67.0903 311.595 70.5005 307.658 70.5005ZM307.658 68.6606C310.295 68.6606 311.748 65.9771 311.748 61.7583C311.748 57.5981 310.271 54.8794 307.658 54.8794C305.045 54.8794 303.545 57.6216 303.545 61.7466C303.545 65.9653 305.01 68.6606 307.658 68.6606ZM317.174 73.5825H315.474L316.611 67.6177H318.779L317.174 73.5825ZM327.838 70.5005C323.888 70.5005 321.603 67.1021 321.603 61.7583C321.603 56.4614 323.912 53.0278 327.838 53.0278C331.763 53.0278 334.049 56.438 334.049 61.7466C334.049 67.0903 331.775 70.5005 327.838 70.5005ZM327.838 68.6606C330.474 68.6606 331.927 65.9771 331.927 61.7583C331.927 57.5981 330.451 54.8794 327.838 54.8794C325.224 54.8794 323.724 57.6216 323.724 61.7466C323.724 65.9653 325.189 68.6606 327.838 68.6606ZM342.392 70.5005C338.443 70.5005 336.158 67.1021 336.158 61.7583C336.158 56.4614 338.467 53.0278 342.392 53.0278C346.318 53.0278 348.603 56.438 348.603 61.7466C348.603 67.0903 346.33 70.5005 342.392 70.5005ZM342.392 68.6606C345.029 68.6606 346.482 65.9771 346.482 61.7583C346.482 57.5981 345.006 54.8794 342.392 54.8794C339.779 54.8794 338.279 57.6216 338.279 61.7466C338.279 65.9653 339.744 68.6606 342.392 68.6606ZM356.947 70.5005C352.998 70.5005 350.713 67.1021 350.713 61.7583C350.713 56.4614 353.021 53.0278 356.947 53.0278C360.873 53.0278 363.158 56.438 363.158 61.7466C363.158 67.0903 360.885 70.5005 356.947 70.5005ZM356.947 68.6606C359.584 68.6606 361.037 65.9771 361.037 61.7583C361.037 57.5981 359.56 54.8794 356.947 54.8794C354.334 54.8794 352.834 57.6216 352.834 61.7466C352.834 65.9653 354.299 68.6606 356.947 68.6606ZM372.416 64.5005V69.8677H370.517V64.5005H365.513V62.6021H370.517V57.3638H372.416V62.6021H377.42V64.5005H372.416Z" fill="#212121" fill-opacity="0.83"/>
<rect y="78.9653" width="392.976" height="3.0862" fill="#00224F"/>
<line x1="397.394" y1="71.9993" x2="387.106" y2="89.5578" stroke="black" stroke-width="3.0862"/>
</svg>
